<?xml version="1.0" encoding="utf-8"?>
<!-- Generator: Adobe Illustrator 18.1.1, SVG Export Plug-In . SVG Version: 6.00 Build 0)  -->
<svg version="1.1" id="Слой_1" xmlns="http://www.w3.org/2000/svg" xmlns:xlink="http://www.w3.org/1999/xlink" x="0px" y="0px"
	 width="30px" height="34px" viewBox="-134 134 30 34" enable-background="new -134 134 30 34" xml:space="preserve">
<g display="none">
	<path display="inline" d="M-106.4,150.8c-0.4,0-0.7-0.3-0.7-0.7v-1.4c0-6.9-5.3-12.5-11.8-12.5s-11.8,5.6-11.8,12.5v1.4
		c0,0.4-0.3,0.7-0.7,0.7c-0.4,0-0.7-0.3-0.7-0.7v-1.4c0-7.6,5.9-13.9,13.2-13.9c7.3,0,13.2,6.2,13.2,13.9v1.4
		C-105.7,150.4-106.1,150.8-106.4,150.8"/>
	<path display="inline" fill="none" stroke="#000000" stroke-width="7" stroke-miterlimit="10" d="M-106.4,150.8
		c-0.4,0-0.7-0.3-0.7-0.7v-1.4c0-6.9-5.3-12.5-11.8-12.5s-11.8,5.6-11.8,12.5v1.4c0,0.4-0.3,0.7-0.7,0.7c-0.4,0-0.7-0.3-0.7-0.7
		v-1.4c0-7.6,5.9-13.9,13.2-13.9c7.3,0,13.2,6.2,13.2,13.9v1.4C-105.7,150.4-106.1,150.8-106.4,150.8"/>
	<path display="inline" d="M-131.4,156.3c-1.1,0-2.1-0.9-2.1-2.1v-2.8c0-1.1,0.9-2.1,2.1-2.1s2.1,0.9,2.1,2.1v2.8
		C-129.3,155.4-130.2,156.3-131.4,156.3 M-131.4,150.8c-0.4,0-0.7,0.3-0.7,0.7v2.8c0,0.4,0.3,0.7,0.7,0.7c0.4,0,0.7-0.3,0.7-0.7
		v-2.8C-130.7,151.1-131,150.8-131.4,150.8"/>
	<path display="inline" fill="none" stroke="#000000" stroke-width="7" stroke-miterlimit="10" d="M-131.4,156.3
		c-1.1,0-2.1-0.9-2.1-2.1v-2.8c0-1.1,0.9-2.1,2.1-2.1s2.1,0.9,2.1,2.1v2.8C-129.3,155.4-130.2,156.3-131.4,156.3 M-131.4,150.8
		c-0.4,0-0.7,0.3-0.7,0.7v2.8c0,0.4,0.3,0.7,0.7,0.7c0.4,0,0.7-0.3,0.7-0.7v-2.8C-130.7,151.1-131,150.8-131.4,150.8"/>
	<path display="inline" d="M-106.4,156.3c-1.1,0-2.1-0.9-2.1-2.1v-2.8c0-1.1,0.9-2.1,2.1-2.1s2.1,0.9,2.1,2.1v2.8
		C-104.4,155.4-105.3,156.3-106.4,156.3 M-106.4,150.8c-0.4,0-0.7,0.3-0.7,0.7v2.8c0,0.4,0.3,0.7,0.7,0.7s0.7-0.3,0.7-0.7v-2.8
		C-105.7,151.1-106.1,150.8-106.4,150.8"/>
	<path display="inline" fill="none" stroke="#000000" stroke-width="7" stroke-miterlimit="10" d="M-106.4,156.3
		c-1.1,0-2.1-0.9-2.1-2.1v-2.8c0-1.1,0.9-2.1,2.1-2.1s2.1,0.9,2.1,2.1v2.8C-104.4,155.4-105.3,156.3-106.4,156.3 M-106.4,150.8
		c-0.4,0-0.7,0.3-0.7,0.7v2.8c0,0.4,0.3,0.7,0.7,0.7s0.7-0.3,0.7-0.7v-2.8C-105.7,151.1-106.1,150.8-106.4,150.8"/>
	<path display="inline" d="M-110.6,160.5c-0.4,0-0.7-0.3-0.7-0.7c0-0.4,0.3-0.7,0.7-0.7c1.9,0,3.5-1.6,3.5-3.5
		c0-0.4,0.3-0.7,0.7-0.7c0.4,0,0.7,0.3,0.7,0.7C-105.7,158.3-107.9,160.5-110.6,160.5"/>
	<path display="inline" fill="none" stroke="#000000" stroke-width="7" stroke-miterlimit="10" d="M-110.6,160.5
		c-0.4,0-0.7-0.3-0.7-0.7c0-0.4,0.3-0.7,0.7-0.7c1.9,0,3.5-1.6,3.5-3.5c0-0.4,0.3-0.7,0.7-0.7c0.4,0,0.7,0.3,0.7,0.7
		C-105.7,158.3-107.9,160.5-110.6,160.5"/>
	<path display="inline" d="M-119.1,167.2c-2.4,0-4.7-0.5-6.9-1.5c-0.2-0.1-0.4-0.3-0.4-0.6c0-0.2,0.1-0.5,0.3-0.6l1-0.5
		c0.5-0.3,0.9-0.9,0.9-1.5v-2.1c-0.4-0.6-1.6-2.3-2.2-4.6c-0.6-0.5-0.9-1.2-0.9-2v-2.5c0-0.6,0.2-1.2,0.6-1.7v-3.4
		c0-0.3-0.2-2.4,1.3-4.1c1.3-1.5,3.4-2.2,6.2-2.2c2.9,0,5,0.7,6.3,2.2c1.5,1.7,1.4,3.8,1.3,4.1v3.4c0.4,0.5,0.6,1,0.6,1.7v2.5
		c0,0.8-0.3,1.5-0.9,2c-0.6,2.3-1.8,4-2.2,4.6v2.1c0,0.6,0.3,1.2,0.9,1.5l1,0.5c0.2,0.1,0.3,0.3,0.3,0.6c0,0.2-0.1,0.5-0.4,0.6
		C-114.4,166.7-116.7,167.2-119.1,167.2 M-124.2,165c3.3,1.2,7,1.2,10.3,0c-0.8-0.5-1.4-1.5-1.4-2.5v-2.3c0-0.1,0.1-0.3,0.1-0.4
		c0,0,1.6-1.9,2.2-4.5c0-0.2,0.1-0.3,0.3-0.4c0.4-0.2,0.6-0.6,0.6-1.1v-2.5c0-0.4-0.2-0.7-0.4-0.9c-0.1-0.1-0.2-0.3-0.2-0.5v-3.6
		c0,0,0-0.1,0-0.1c0,0,0.2-1.8-1-3.2c-1-1.2-2.8-1.8-5.3-1.8c-2.5,0-4.3,0.6-5.3,1.8c-1.2,1.4-1,3.1-1,3.2c0,0,0,0.1,0,0.1v3.6
		c0,0.2-0.1,0.3-0.2,0.5c-0.3,0.2-0.4,0.6-0.4,0.9v2.5c0,0.4,0.2,0.8,0.6,1.1c0.1,0.1,0.2,0.2,0.3,0.4c0.6,2.6,2.1,4.4,2.2,4.5
		c0.1,0.1,0.1,0.3,0.1,0.4v2.3C-122.9,163.5-123.4,164.5-124.2,165"/>
	<g display="inline">
		<path fill="none" stroke="#000000" stroke-width="14" stroke-miterlimit="10" d="M-119.1,167.2c-2.4,0-4.7-0.5-6.9-1.5
			c-0.2-0.1-0.4-0.3-0.4-0.6c0-0.2,0.1-0.5,0.3-0.6l1-0.5c0.5-0.3,0.9-0.9,0.9-1.5v-2.1c-0.4-0.6-1.6-2.3-2.2-4.6
			c-0.6-0.5-0.9-1.2-0.9-2v-2.5c0-0.6,0.2-1.2,0.6-1.7v-3.4c0-0.3-0.2-2.4,1.3-4.1c1.3-1.5,3.4-2.2,6.2-2.2c2.9,0,5,0.7,6.3,2.2
			c1.5,1.7,1.4,3.8,1.3,4.1v3.4c0.4,0.5,0.6,1,0.6,1.7v2.5c0,0.8-0.3,1.5-0.9,2c-0.6,2.3-1.8,4-2.2,4.6v2.1c0,0.6,0.3,1.2,0.9,1.5
			l1,0.5c0.2,0.1,0.3,0.3,0.3,0.6c0,0.2-0.1,0.5-0.4,0.6C-114.4,166.7-116.7,167.2-119.1,167.2 M-124.2,165c3.3,1.2,7,1.2,10.3,0
			c-0.8-0.5-1.4-1.5-1.4-2.5v-2.3c0-0.1,0.1-0.3,0.1-0.4c0,0,1.6-1.9,2.2-4.5c0-0.2,0.1-0.3,0.3-0.4c0.4-0.2,0.6-0.6,0.6-1.1v-2.5
			c0-0.4-0.2-0.7-0.4-0.9c-0.1-0.1-0.2-0.3-0.2-0.5v-3.6c0,0,0-0.1,0-0.1c0,0,0.2-1.8-1-3.2c-1-1.2-2.8-1.8-5.3-1.8
			c-2.5,0-4.3,0.6-5.3,1.8c-1.2,1.4-1,3.1-1,3.2c0,0,0,0.1,0,0.1v3.6c0,0.2-0.1,0.3-0.2,0.5c-0.3,0.2-0.4,0.6-0.4,0.9v2.5
			c0,0.4,0.2,0.8,0.6,1.1c0.1,0.1,0.2,0.2,0.3,0.4c0.6,2.6,2.1,4.4,2.2,4.5c0.1,0.1,0.1,0.3,0.1,0.4v2.3
			C-122.9,163.5-123.4,164.5-124.2,165"/>
	</g>
</g>
<g>
	<path d="M-105.4,148.9v-0.6c0-7.9-6.1-14.3-13.6-14.3c-7.5,0-13.6,6.4-13.6,14.3v0.6c-0.8,0.4-1.4,1.2-1.4,2.2v2.8
		c0,1.3,1.1,2.4,2.4,2.4s2.4-1.1,2.4-2.4v-2.8c0-1-0.6-1.8-1.4-2.2v-0.6c0-6.8,5.2-12.3,11.6-12.3c6.4,0,11.6,5.5,11.6,12.3v0.6
		c-0.8,0.4-1.4,1.2-1.4,2.2v2.8c0,0.9,0.5,1.7,1.3,2.1c-0.3,1.4-1.6,2.5-3.1,2.5c-0.5,0-1,0.4-1,1c0,0.5,0.4,1,1,1
		c2.6,0,4.7-1.9,5.1-4.4c0.9-0.4,1.5-1.2,1.5-2.2v-2.8C-104,150.1-104.6,149.3-105.4,148.9z M-106,151.1v2.8c0,0.2-0.2,0.4-0.4,0.4
		c-0.2,0-0.4-0.2-0.4-0.4v-2.8c0-0.2,0.2-0.4,0.4-0.4C-106.2,150.7-106,150.9-106,151.1z M-131.2,151.1v2.8c0,0.2-0.2,0.4-0.4,0.4
		s-0.4-0.2-0.4-0.4v-2.8c0-0.2,0.2-0.4,0.4-0.4S-131.2,150.9-131.2,151.1z"/>
	<path d="M-111.9,163.8l-1-0.5c-0.4-0.2-0.6-0.6-0.6-1v-1.9c0.5-0.7,1.6-2.4,2.2-4.5c0.6-0.6,1-1.4,1-2.3v-2.6
		c0-0.7-0.2-1.3-0.6-1.9V146c0-0.5,0.1-2.7-1.5-4.6c-1.4-1.6-3.7-2.4-6.7-2.4c-3.1,0-5.3,0.8-6.7,2.4c-1.6,1.8-1.5,4.1-1.5,4.6v3.2
		c-0.4,0.5-0.6,1.2-0.6,1.9v2.6c0,0.9,0.4,1.7,1,2.3c0.6,2.1,1.6,3.8,2.2,4.5v1.9c0,0.4-0.2,0.8-0.6,1l-1,0.5
		c-0.4,0.2-0.6,0.6-0.6,1.1c0,0.5,0.3,0.9,0.7,1.1c2.3,1,4.7,1.6,7.2,1.6c2.5,0,4.9-0.5,7.2-1.6c0.4-0.2,0.7-0.6,0.7-1.1
		C-111.3,164.5-111.5,164-111.9,163.8z M-122.4,162.3V160c0-0.3-0.1-0.6-0.3-0.8c0,0-1.5-1.8-2.1-4.3c-0.1-0.3-0.3-0.6-0.5-0.7
		c-0.2-0.1-0.3-0.4-0.3-0.6v-2.6c0-0.2,0.1-0.4,0.2-0.5c0.3-0.2,0.4-0.6,0.4-0.9V146c0,0,0-0.1,0-0.1l0,0c0-0.1-0.1-1.6,0.9-2.7
		c0.9-1.1,2.6-1.6,4.9-1.6c2.3,0,4,0.5,4.9,1.6c1,1.2,0.9,2.7,0.9,2.8l0,0c0,0.1,0,0.1,0,0.1v3.7c0,0.3,0.1,0.7,0.4,0.9
		c0.2,0.1,0.2,0.3,0.2,0.5v2.6c0,0.2-0.1,0.5-0.3,0.6c-0.3,0.2-0.5,0.4-0.5,0.7c-0.5,2.4-1.9,4.1-2.1,4.3c-0.2,0.2-0.3,0.5-0.3,0.8
		v2.3c0,0.8,0.3,1.6,0.8,2.3c-1.3,0.4-2.7,0.6-4.1,0.6c-1.4,0-2.8-0.2-4.1-0.6C-122.7,163.9-122.4,163.2-122.4,162.3z"/>
</g>
</svg>
